<?xml version="1.0" encoding="UTF-8"?>
<svg id="Lag_1" data-name="Lag 1" xmlns="http://www.w3.org/2000/svg" viewBox="0 0 465.87 216.59">
  <defs>
    <style>
      .cls-1 {
        fill: #fa7b22;
      }

      .cls-1, .cls-2 {
        stroke-width: 0px;
      }

      .cls-2 {
        fill: #024cae;
      }
    </style>
  </defs>
  <path class="cls-2" d="m36.76,48.01c-.08-4.66.33-9.26,1.63-13.75.86-2.98,2.36-5.55,4.65-7.7,2.17-2.05,4.63-2.41,7.33-1.5,2.6.87,4.98,2.22,7.19,3.8,8.52,6.12,16.45,12.92,23.95,20.25,2.97,2.9,5.93,5.78,8.71,8.86.71.78.88,2.39,2.17,2.24.94-.11,1.8-.97,2.68-1.51,2.52-1.54,4.99-3.17,7.57-4.61,1.67-.93,2.4-2.06,2.22-4.03-.43-4.57,3.52-9.41,9.56-8.94,4.54.35,7.66,3.72,8.52,7.88.89,4.35-.87,8.06-4.42,10.02-1.56.86-3.23.97-4.9.76-1.32-.16-2.08.33-2.78,1.35-1.98,2.91-4.03,5.77-6.03,8.67-1.14,1.66-1.14,1.69.05,3.32,2.97,4.07,6,8.1,8.91,12.21,5.04,7.12,9.88,14.37,13.83,22.17,1.09,2.14,1.97,4.34,2.31,6.76.6,4.3-1.21,7.97-6.33,10.38-2.91,1.37-6.01,1.95-9.22,2.16-6.59.44-13.11-.45-19.39-2.08-15.26-3.97-28.61-11.37-39.13-23.4-7.3-8.34-12.08-18.03-15.29-28.55-2.46-8.06-3.68-16.33-3.79-24.76Zm63.95,27.71c-2,2.89-3.81,5.51-5.63,8.11-1.65,2.36-3.33,4.69-4.94,7.07-.59.87-1.15,1.03-1.93.31-.29-.27-.63-.5-.89-.8-4.43-5.05-9.12-9.88-13.13-15.28-1.07-1.45-1.06-1.67.39-2.62,4.02-2.63,7.85-5.53,11.95-8.03,2.21-1.34,2.17-1.39.44-3.2-8.45-8.85-17.41-17.14-26.99-24.75-2.63-2.09-5.34-4.1-8.34-5.63-2.42-1.23-3.65-.39-3.6,2.33,0,.32.01.65.08.95.67,2.87,1.32,5.75,2.46,8.49,4.37,10.57,10.32,20.22,16.98,29.46,5.11,7.09,10.81,13.69,17.03,19.83,5.76,5.68,11.57,11.3,18.25,15.92,4.42,3.06,9.03,5.79,14.23,7.32,1.84.54,3.69,1.08,5.65.83,1.37-.18,1.81-.65,1.87-2.02.03-.8,0-1.59-.3-2.36-.58-1.58-1.23-3.12-2.07-4.58-4.32-7.5-9.23-14.6-14.26-21.63-2.27-3.18-4.67-6.26-7.26-9.72Z"/>
  <path class="cls-2" d="m266.22,115.75c-10.5.13-19.54-2.57-27.37-8.78-5.85-4.65-9.79-10.68-12.19-17.75-2.48-7.3-2.93-14.78-1.43-22.25,2.86-14.24,11.14-24.2,24.86-29.14,11.18-4.02,22.53-3.78,33.44,1,12.27,5.39,19.77,14.98,22.39,28.11,2.24,11.19.63,21.85-5.83,31.45-6.31,9.38-15.12,14.94-26.31,16.77-2.71.44-5.41.45-7.55.59Zm23.32-40.44c-.14-1.93-.1-4.42-.68-6.86-1.59-6.71-5.14-12.03-11.26-15.39-5.89-3.23-12.23-3.68-18.62-2.13-5.46,1.32-9.94,4.28-12.94,9.23-5.06,8.34-5.48,17.18-2.1,26.03,2.74,7.18,7.99,12.13,15.81,13.69,3.62.72,7.3.93,10.97.23,5.82-1.11,10.56-3.93,14.11-8.73,3.42-4.63,4.75-9.88,4.71-16.08Z"/>
  <path class="cls-2" d="m173.35,68.31c.91-.43,1.46-1.22,2.09-1.91,3.56-3.89,7.1-7.8,10.66-11.7,5.17-5.67,10.35-11.34,15.5-17.02.72-.79,1.38-1.41,2.61-1.39,6.49.06,12.98.03,19.46.04.15,0,.3.1.5.17.06.75-.63,1.02-1.01,1.44-7.11,7.71-14.25,15.39-21.36,23.09-3.04,3.29-6.06,6.61-9.04,9.95-1.45,1.63-1.4,1.71-.04,3.39,4.04,5.01,8.08,10.01,12.1,15.03,5.76,7.19,11.5,14.4,17.27,21.58.69.86,1.64,1.49,2.22,2.46-.22.7-.82.83-1.32.8-5.84-.38-11.68-.08-17.53-.15-1.56-.02-2.56-.49-3.57-1.79-7.26-9.35-14.65-18.62-22-27.9-1.14-1.44-1.17-1.42-2.52-.18-.06.05-.11.11-.17.17q-4.29,4.11-4.28,10.12c.01,5.85.02,11.69.03,17.54,0,1.96-.02,2.01-2.02,2.02-4.16.03-8.33.03-12.5.02-2.06,0-2.07-.01-2.08-2.17,0-10.49-.02-20.99-.02-31.48,0-13.54,0-27.07,0-40.61,0-.48,0-.96.01-1.44.04-2.06.04-2.07,2.11-2.08,4.09,0,8.17-.02,12.26-.01,2.15,0,2.17.03,2.17,2.04.02,9.21.02,18.42.06,27.63,0,.75-.3,1.59.41,2.32Z"/>
  <path class="cls-1" d="m392.37,180.29c-6.02-2.44-12.18-4.4-18.54-5.72-6.49-1.35-13-2.53-19.61-3.27-8.55-.96-17.1-1.1-25.65-.78-6.39.24-12.79.68-19.13,1.59-11.63,1.67-23.21,3.73-34.63,6.54-10.71,2.64-21.37,5.5-32.07,8.18-11.71,2.94-23.48,5.62-35.43,7.48-13.08,2.04-26.23,3.17-39.46,2.7-5.59-.2-11.17-.73-16.73-1.46-10.11-1.34-19.96-3.7-29.59-7-8.89-3.04-17.36-6.95-25.46-11.73-8.73-5.16-16.68-11.3-23.92-18.38-1.35-1.32-2.61-2.71-3.65-4.26.55-.63,1.15-.43,1.68-.43,2-.03,4.01.09,6.01-.04,1.88-.12,3.25.49,4.69,1.78,9.61,8.6,20.24,15.58,32.16,20.66,10.51,4.48,21.33,7.8,32.5,9.99,11.04,2.17,22.24,2.54,33.46,2.34,7.53-.13,15.02-.79,22.48-1.75,4.99-.64,9.93-1.71,14.88-2.65,7.62-1.45,15.17-3.23,22.68-5.14,9.38-2.39,18.75-4.8,28.15-7.12,8.62-2.13,17.29-4.01,26.01-5.69,7.46-1.43,14.98-2.47,22.53-3.19,8.77-.83,17.58-.93,26.39-.75,5.69.11,11.36.48,16.99,1.2,10.49,1.35,20.83,3.42,30.79,7.13,1.94.72,3.96,1.28,5.74,2.41-1.05,2.47-1.78,5.07-3.28,7.34Z"/>
  <path class="cls-2" d="m317.31,75.08c0-12.25,0-24.49,0-36.74,0-1.99,0-2.02,1.9-2.02,15.29-.01,30.58-.01,45.87-.02,1.8,0,2.03-.21,1.99,1.94-.07,3.6-.02,7.2-.03,10.8,0,2.22,0,2.23-2.17,2.23-9.13,0-18.25,0-27.38,0-3.77,0-3.57-.54-3.58,3.64,0,3.84.01,7.68.04,11.53.01,2.45.03,2.48,2.57,2.48,7.92,0,15.85-.01,23.77-.02.48,0,.96-.03,1.44-.03.77,0,1.19.35,1.19,1.15,0,4.16-.02,8.33.01,12.49,0,1.01-.55,1.19-1.37,1.18-1.76-.02-3.52-.01-5.28-.01-6.48,0-12.97,0-19.45-.01-.56,0-1.12,0-1.68.02-.75.02-1.19.34-1.19,1.16,0,1.04-.1,2.08-.09,3.12.03,7.76-.16,15.53.09,23.29.02.48,0,.96.02,1.44.04.87-.29,1.38-1.22,1.37-4.72-.01-9.45-.03-14.17-.02-1.32,0-1.29-.8-1.29-1.76.02-12.41.01-24.81.01-37.22Z"/>
  <path class="cls-2" d="m55.8,107.62c2.13,1.69,4.05,3.22,5.99,4.74,5,3.9,10.42,7.12,16.05,10.01.78.4,1.56.81,2.34,1.22,1.12.59,1.83,1.48,2.22,2.7.67,2.05,1.55,4.03,2.12,6.1.92,3.4,3.01,5.35,6.5,5.81.79.11,1.55.42,2.34.51,1.79.19,2.67,1.23,2.97,2.92.35,2.04.8,4.07,1.08,6.13.33,2.42.27,2.44-2.09,2.44-8.32,0-16.65,0-24.97,0-10.64,0-21.29,0-31.93,0-2.8,0-2.8,0-2.25-2.75.39-1.96.77-3.92,1.13-5.88.28-1.53,1.17-2.38,2.68-2.68,1.65-.32,3.28-.69,4.92-1.05,1.98-.43,3.11-1.57,3.67-3.61,2.01-7.3,3.91-14.63,5.74-21.98.36-1.46.72-2.93,1.49-4.62Z"/>
  <path class="cls-2" d="m393.42,36.44c.38.75.24,1.49.24,2.2,0,24.34.01,48.67.01,73.01,0,.32-.02.64,0,.96.09,1-.32,1.47-1.36,1.47-4.56-.02-9.13-.04-13.69.02-1.41.02-1.49-.74-1.49-1.82.03-5.52,0-11.05,0-16.57,0-18.97.01-37.94.02-56.92,0-.32.03-.64-.02-.96-.16-1.14.28-1.56,1.46-1.53,3.04.07,6.08-.01,9.13.03,1.91.03,3.83-.17,5.69.12Z"/>
  <path class="cls-2" d="m392.37,180.29c1.49-2.27,2.23-4.88,3.28-7.34.34-.54.71-1.06,1.02-1.61,1.24-2.18,2-2.51,4.26-1.59,2.66,1.08,5.3,2.23,7.93,3.4,2.85,1.26,5.68,2.57,8.51,3.87,2.62,1.2,2.87,1.76,2.13,4.43-.54,1.94-.53,1.92,1.41,2.75,2.57,1.1,5.12,2.25,7.69,3.36.95.41,1.37.91.89,2.03-.46,1.06-.9,1.59-2.13,1.08-2.58-1.08-5.19-2.07-7.79-3.11-.44-.18-.86-.43-1.31-.59-.41-.15-.8-.06-1.03.35-.21.39-.17.8.21,1.06.39.26.84.46,1.27.66,2.23,1.07,4.49,2.1,6.7,3.21,1.37.69,1.53,1.97.5,3.08-.52.56-1.04.22-1.53,0-1.84-.78-3.67-1.59-5.51-2.38-.88-.38-1.77-.72-2.65-1.11-.84-.38-1.38-.26-2.01.56-1.28,1.64-1.68,1.67-3.7.89-5.67-2.19-11.19-4.71-16.71-7.23-2.24-1.03-2.43-1.58-1.75-3.91.18-.61.45-1.21.34-1.87Z"/>
  <g>
    <path class="cls-2" d="m158.58,130.1h4.53v8.94h.09c.45-.78.93-1.5,1.38-2.22l4.59-6.72h5.61l-6.69,8.61,7.05,11.61h-5.34l-4.95-8.73-1.74,2.13v6.6h-4.53v-20.22Z"/>
    <path class="cls-2" d="m198.93,140c0,6.63-4.02,10.65-9.93,10.65s-9.51-4.53-9.51-10.29c0-6.06,3.87-10.59,9.84-10.59s9.6,4.65,9.6,10.23Zm-14.61.27c0,3.96,1.86,6.75,4.92,6.75s4.86-2.94,4.86-6.87c0-3.63-1.74-6.75-4.89-6.75s-4.89,2.94-4.89,6.87Z"/>
    <path class="cls-2" d="m210.57,145.13l-1.44,5.19h-4.74l6.18-20.22h6l6.27,20.22h-4.92l-1.56-5.19h-5.79Zm5.13-3.42l-1.26-4.29c-.36-1.2-.72-2.7-1.02-3.9h-.06c-.3,1.2-.6,2.73-.93,3.9l-1.2,4.29h4.47Z"/>
    <path class="cls-2" d="m239.88,150.32l-1.83-3.66c-.75-1.41-1.23-2.46-1.8-3.63h-.06c-.42,1.17-.93,2.22-1.56,3.63l-1.68,3.66h-5.22l5.85-10.23-5.64-9.99h5.25l1.77,3.69c.6,1.23,1.05,2.22,1.53,3.36h.06c.48-1.29.87-2.19,1.38-3.36l1.71-3.69h5.22l-5.7,9.87,6,10.35h-5.28Z"/>
    <path class="cls-2" d="m275.37,150.32c-.42-.45-.84-.9-1.32-1.44-1.32,1.02-3.15,1.77-5.55,1.77-4.89,0-7.05-2.91-7.05-5.73,0-2.67,1.53-4.59,3.84-5.79v-.12c-.87-.96-1.53-2.46-1.53-3.9,0-2.55,2.01-5.34,6.06-5.34,3.12,0,5.49,1.83,5.49,4.74,0,2.04-1.2,3.78-3.99,5.19l-.03.12c1.17,1.29,2.4,2.76,3.39,3.78.81-1.26,1.44-3.12,1.71-4.92h4.08c-.54,3.06-1.56,5.67-3.36,7.68,1.14,1.29,2.31,2.61,3.57,3.96h-5.31Zm-3.45-3.99c-1.26-1.26-2.91-3.09-4.56-4.95-.84.6-1.59,1.47-1.59,2.79,0,1.71,1.29,3.18,3.36,3.18,1.2,0,2.19-.45,2.79-1.02Zm-4.08-11.64c0,1.02.48,1.92,1.38,2.91,1.47-1.02,2.22-1.8,2.22-2.97,0-.96-.57-2.01-1.77-2.01s-1.83,1.02-1.83,2.07Z"/>
    <path class="cls-2" d="m297.72,130.1h12.36v3.75h-7.77v4.62h7.26v3.72h-7.26v8.13h-4.59v-20.22Z"/>
    <path class="cls-2" d="m322.53,130.1v20.22h-4.59v-20.22h4.59Z"/>
    <path class="cls-2" d="m330.9,130.37c1.2-.24,3.63-.42,5.91-.42,2.79,0,4.5.27,5.97,1.14,1.41.75,2.43,2.13,2.43,3.96s-1.05,3.48-3.33,4.32v.06c2.31.63,4.02,2.37,4.02,4.98,0,1.83-.84,3.27-2.1,4.29-1.47,1.17-3.93,1.83-7.95,1.83-2.25,0-3.93-.15-4.95-.3v-19.86Zm4.53,7.74h1.5c2.4,0,3.69-.99,3.69-2.49s-1.17-2.34-3.24-2.34c-.99,0-1.56.06-1.95.12v4.71Zm0,8.97c.45.06.99.06,1.77.06,2.07,0,3.9-.78,3.9-2.91s-1.83-2.85-4.11-2.85h-1.56v5.7Z"/>
    <path class="cls-2" d="m357.99,130.1v11.64c0,3.48,1.32,5.25,3.66,5.25s3.72-1.68,3.72-5.25v-11.64h4.56v11.34c0,6.24-3.15,9.21-8.43,9.21s-8.1-2.82-8.1-9.27v-11.28h4.59Z"/>
    <path class="cls-2" d="m378.3,130.37c1.47-.24,3.66-.42,6.09-.42,3,0,5.1.45,6.54,1.59,1.2.96,1.86,2.37,1.86,4.23,0,2.58-1.83,4.35-3.57,4.98v.09c1.41.57,2.19,1.92,2.7,3.78.63,2.28,1.26,4.92,1.65,5.7h-4.68c-.33-.57-.81-2.22-1.41-4.71-.54-2.52-1.41-3.21-3.27-3.24h-1.38v7.95h-4.53v-19.95Zm4.53,8.7h1.8c2.28,0,3.63-1.14,3.63-2.91,0-1.86-1.26-2.79-3.36-2.82-1.11,0-1.74.09-2.07.15v5.58Z"/>
  </g>
</svg>